<svg width="24" height="24" viewBox="0 0 25 24" fill="none" xmlns="http://www.w3.org/2000/svg">
    <path d="M6.90942 5.49019C6.65558 5.23634 6.24403 5.23634 5.99019 5.49019C5.73634 5.74403 5.73634 6.15558 5.99019 6.40942L11.5808 12L6.09065 17.4902C5.83681 17.744 5.83681 18.1556 6.09065 18.4094C6.34449 18.6633 6.75605 18.6633 7.00989 18.4094L12.5 12.9193L17.9902 18.4094C18.244 18.6633 18.6556 18.6633 18.9094 18.4094C19.1633 18.1556 19.1633 17.744 18.9094 17.4902L13.4193 12L19.0099 6.40942C19.2637 6.15558 19.2637 5.74403 19.0099 5.49019C18.756 5.23634 18.3445 5.23634 18.0906 5.49019L12.5 11.0808L6.90942 5.49019Z" fill="#717681" />
</svg>